# xmcd
#
# Track frame offsets: 
#        150
#        22174
#        39981
#        59518
#        79753
#        96014
#        113660
#        126470
#        143827
#        166056
#        181431
#
# Disc length: 2692 seconds
#
# Revision: 0
# Processed by: cddbd v1.5.2PL0 Copyright (c) Steve Scherf et al.
# Submitted via: ExactAudioCopy v1.0b3
#
DISCID=910a820b
DTITLE=Ettone - Ettone
DYEAR=2005
DGENRE=Rock
TTITLE0=Parmesaania ulkohuusissa
TTITLE1=Sohva
TTITLE2=Hovioikeus
TTITLE3=Korpitien koulu
TTITLE4=Kuiskaaja
TTITLE5=Ristiaallokko
TTITLE6=Kansa laulaa
TTITLE7=Enemmän lisää
TTITLE8=Äitimaa
TTITLE9=Elvis lähtee
TTITLE10=Yhteinen
EXTD=
EXTT0=
EXTT1=
EXTT2=
EXTT3=
EXTT4=
EXTT5=
EXTT6=
EXTT7=
EXTT8=
EXTT9=
EXTT10=
PLAYORDER=
